PathFileType	4	(X/Y/Z)	Walk8.trc
DataRate	CameraRate	NumFrames	NumMarkers	Units	OrigDataRate	OrigDataStartFrame	OrigNumFrames
200.000000	200.000000	5	55	mm	200.000000	721	935
Frame#	Times		LToe		LWRR		C7		RTH2		LACR1		RBHD		LElbow		LUA1		RMT1		LCAR		RCAR		RToe		LWRU		RTB2		LMMAL		RTB3		LTH3		RFA1		RTB4		RMT5		LMT5		RTB1		RMFC		RElbow		LTH4		RElbowM		RMMAL		RLFC		RCAL		LTB2		LPSI		LLFC		RPSI		RTH3		LTH2		T10		LASI		LCAL		LBHD		RBack		RASI		RFHD		LFHD		RACR1		LMT1		RLMAL		LLMAL		RUA1		RWRR		LTB1		LMFC		LTH1		LTB3		LTB4		RTH4
			X1	Y1	Z1	X2	Y2	Z2	X3	Y3	Z3	X4	Y4	Z4	X5	Y5	Z5	X6	Y6	Z6	X7	Y7	Z7	X8	Y8	Z8	X9	Y9	Z9	X10	Y10	Z10	X11	Y11	Z11	X12	Y12	Z12	X13	Y13	Z13	X14	Y14	Z14	X15	Y15	Z15	X16	Y16	Z16	X17	Y17	Z17	X18	Y18	Z18	X19	Y19	Z19	X20	Y20	Z20	X21	Y21	Z21	X22	Y22	Z22	X23	Y23	Z23	X24	Y24	Z24	X25	Y25	Z25	X26	Y26	Z26	X27	Y27	Z27	X28	Y28	Z28	X29	Y29	Z29	X30	Y30	Z30	X31	Y31	Z31	X32	Y32	Z32	X33	Y33	Z33	X34	Y34	Z34	X35	Y35	Z35	X36	Y36	Z36	X37	Y37	Z37	X38	Y38	Z38	X39	Y39	Z39	X40	Y40	Z40	X41	Y41	Z41	X42	Y42	Z42	X43	Y43	Z43	X44	Y44	Z44	X45	Y45	Z45	X46	Y46	Z46	X47	Y47	Z47	X48	Y48	Z48	X49	Y49	Z49	X50	Y50	Z50	X51	Y51	Z51	X52	Y52	Z52	X53	Y53	Z53	X54	Y54	Z54	X55	Y55	Z55

721	3.605	-121.82	21.875	-74.657	196.25	824.06	-291.53	-63.156	1457.7	-32.517	145.12	675.77	96.607	37.166	1399	-197.34	-32.214	1590.5	-93	50.248	1062.7	-331.78	53.59	1200.5	-282.18	378.09	50.163	41.762	111.41	934.41	-322.67	25.753	768.29	239.38	418.09	68.415	83.939	265.16	837.12	-264.57	207.21	293.88	99.643	-297.63	90.335	-30.546	236.74	208.75	27.106	-67.023	557.82	-158.43	-61.911	906.28	242.68	224.85	296.98	27.212	333.05	29.809	107.58	-216.49	22.069	-136.06	209.82	393.3	30.939	124.18	480.63	-18.258	-91.645	1065.5	242.52	-46.607	648.66	-177.51	-120.92	1070.6	163.06	251.86	76.297	0.358	128.9	518.21	107.93	174.72	28.412	5.5767	-159.93	282.89	-130.08	-142.28	1014.4	-61.879	-99.092	496.8	-146.71	-141.74	1014.5	6.523	113.86	561.01	110.25	9.1597	643.89	-130.6	-132.32	1200.6	-30.625	43.559	1015.2	-188.8	-388.89	78.092	-69.548	-32.989	1583.1	43.672	-87.836	1345	116.71	53.441	967.53	121.14	143.31	1630.1	-59.686	142.39	1627.8	15.268	41.41	1400.9	127.9	-179.06	28.765	-52.937	216.17	63.736	73.81	-318	87.452	-114.75	-7.8088	1222.4	208.1	35.091	816.36	192.52	-112.93	362.51	-59.144	-126.27	487.37	-22.173	-27.144	737.96	-196.62	-211.64	205.73	-58.804	-162.72	284.56	-57.747	86.136	649.2	132.63
722	3.61	-121.9	21.855	-74.457	199.39	823.73	-290.91	-57.831	1458	-31.572	150.74	676.51	96.105	42.383	1399.3	-196.49	-27.063	1590.8	-92.027	54.225	1063	-330.93	58.182	1200.8	-281.3	379.01	48.042	41.284	114.91	934.41	-321.91	31.145	768.12	239.81	419.58	65.72	83.147	268.38	836.54	-264.05	210.9	293.76	99.823	-296.08	92.694	-30.815	239.14	208.32	27.15	-60.963	557.62	-158.03	-56.437	906.15	243.06	228.06	296.66	27.248	333.95	28.347	107.58	-216.43	22.312	-135.82	213.99	393.11	31.005	128.71	481.01	-17.77	-86.037	1065.5	242.93	-40.805	648.52	-177.04	-115.27	1070.6	163.48	252.92	75.763	0.39141	134.51	518.93	108.19	175.08	29.023	5.8784	-156.09	283.53	-130.1	-136.82	1014.7	-61.584	-93.157	496.79	-146.33	-136.23	1015	6.8916	119.58	561.87	110.53	15.037	643.84	-130.21	-126.92	1200.8	-29.951	49.078	1015.6	-188.16	-387.47	81.923	-69.756	-27.701	1583.3	44.65	-82.415	1345	117.52	59.052	967.73	121.31	148.46	1630.5	-58.856	147.61	1628.1	16.1	46.768	1401.1	128.77	-178.92	28.702	-53.032	217.41	63.624	74.003	-316.51	90.022	-115	-2.3307	1222.4	208.75	40.553	816.18	192.95	-108.15	362.48	-59.042	-120.42	487.36	-22.135	-21.587	737.87	-196.11	-208.79	206.93	-58.893	-158.9	285.16	-57.707	91.968	650.09	132.51
723	3.615	-122.02	21.843	-74.246	202.38	823.42	-290.31	-52.49	1458.3	-30.634	156.34	677.32	95.592	47.619	1399.7	-195.63	-21.894	1591.2	-91.053	58.131	1063.3	-330.06	62.747	1201.1	-280.4	379.79	46.137	40.866	118.3	934.46	-321.14	36.542	768.02	240.25	420.91	63.253	82.459	271.47	835.96	-263.57	214.44	293.68	100.05	-294.35	95.213	-31.134	241.43	207.97	27.243	-54.614	557.41	-157.63	-50.939	906.09	243.46	231.17	296.4	27.347	334.72	27.094	107.67	-216.35	22.619	-135.59	218.08	392.98	31.133	133.23	481.48	-17.253	-80.394	1065.4	243.33	-34.781	648.39	-176.54	-109.58	1070.6	163.89	253.84	75.325	0.43998	140.09	519.71	108.49	175.4	29.578	6.185	-152	284.24	-130.15	-131.38	1015.1	-61.328	-86.913	496.77	-145.96	-130.74	1015.6	7.2228	125.28	562.82	110.88	21.124	643.83	-129.77	-121.52	1201.1	-29.289	54.605	1016.1	-187.48	-385.84	86.018	-69.993	-22.397	1583.6	45.629	-76.982	1345.2	118.34	64.64	968.06	121.46	153.63	1631	-58.021	152.85	1628.5	16.936	52.142	1401.3	129.63	-178.78	28.634	-53.137	218.47	63.563	74.199	-314.85	92.765	-115.29	3.1737	1222.5	209.4	46.028	816.07	193.39	-103.07	362.47	-58.978	-114.25	487.31	-22.124	-15.874	737.8	-195.57	-205.71	208.24	-59.024	-154.82	285.82	-57.704	97.813	651.05	132.44
724	3.62	-122.19	21.841	-74.023	205.24	823.14	-289.73	-47.135	1458.7	-29.705	161.9	678.18	95.087	52.873	1400.2	-194.77	-16.706	1591.6	-90.081	61.968	1063.7	-329.17	67.286	1201.4	-279.5	380.46	44.44	40.5	121.58	934.56	-320.38	41.946	767.98	240.7	422.07	61.012	81.868	274.43	835.39	-263.12	217.82	293.64	100.31	-292.42	97.891	-31.507	243.6	207.67	27.375	-47.97	557.19	-157.23	-45.413	906.12	243.86	234.19	296.19	27.495	335.39	26.047	107.83	-216.22	22.999	-135.36	222.08	392.9	31.311	137.72	482.04	-16.719	-74.715	1065.5	243.73	-28.531	648.27	-176.04	-103.86	1070.7	164.31	254.62	74.973	0.49399	145.61	520.53	108.82	175.69	30.073	6.4897	-147.66	285.01	-130.24	-125.96	1015.5	-61.106	-80.351	496.74	-145.6	-125.29	1016.3	7.5196	130.96	563.84	111.3	27.424	643.87	-129.31	-116.14	1201.4	-28.639	60.138	1016.7	-186.79	-383.97	90.383	-70.267	-17.081	1583.9	46.606	-71.538	1345.4	119.16	70.201	968.52	121.61	158.82	1631.5	-57.182	158.1	1629	17.773	57.528	1401.7	130.48	-178.66	28.564	-53.25	219.38	63.549	74.39	-312.98	95.683	-115.62	8.7042	1222.7	210.05	51.516	816.02	193.83	-97.684	362.47	-58.956	-107.75	487.21	-22.138	-10.004	737.75	-195	-202.39	209.63	-59.203	-150.47	286.55	-57.745	103.65	652.09	132.43
725	3.625	-122.41	21.855	-73.787	207.95	822.88	-289.17	-41.774	1459.2	-28.786	167.42	679.08	94.609	58.139	1400.7	-193.91	-11.505	1592	-89.115	65.737	1064.1	-328.26	71.797	1201.8	-278.59	381.01	42.935	40.171	124.75	934.7	-319.6	47.359	768.01	241.15	423.1	58.984	81.358	277.26	834.81	-262.7	221.06	293.62	100.59	-290.26	100.73	-31.942	245.67	207.43	27.53	-41.027	556.96	-156.83	-39.859	906.22	244.27	237.1	296.03	27.677	335.96	25.194	108.04	-216.04	23.46	-135.14	225.98	392.86	31.523	142.17	482.66	-16.182	-69.002	1065.7	244.13	-22.053	648.15	-175.53	-98.108	1070.9	164.72	255.28	74.697	0.54431	151.06	521.36	109.17	175.93	30.506	6.7866	-143.05	285.85	-130.39	-120.57	1015.9	-60.915	-73.465	496.71	-145.26	-119.86	1017	7.7861	136.58	564.92	111.77	33.942	643.95	-128.81	-110.76	1201.8	-27.999	65.675	1017.3	-186.07	-381.84	95.017	-70.587	-11.755	1584.3	47.579	-66.086	1345.7	119.98	75.733	969.11	121.77	164.02	1632	-56.343	163.36	1629.5	18.611	62.923	1402	131.32	-178.55	28.493	-53.371	220.15	63.579	74.572	-310.91	98.777	-116.01	14.26	1223	210.68	57.018	816.05	194.28	-91.985	362.48	-58.979	-100.91	487.07	-22.174	-3.9742	737.72	-194.4	-198.82	211.13	-59.433	-145.84	287.33	-57.835	109.46	653.17	132.48
